<svg width="32" height="32" viewBox="0 0 32 32" fill="none" xmlns="http://www.w3.org/2000/svg">
<path d="M13.3727 1.82035L13.3727 1.82033L2.71901 9.26269L13.3727 1.82035ZM13.3727 1.82035L13.3782 1.81642M13.3727 1.82035L13.3782 1.81642M13.3782 1.81642C14.9142 0.727859 17.0858 0.727859 18.6218 1.81642L18.6218 1.81644M13.3782 1.81642L18.6218 1.81644M18.6218 1.81644L18.6273 1.82033M18.6218 1.81644L18.6273 1.82033M18.6273 1.82033L29.281 9.26269L18.6273 1.82033ZM5.34588 31H26.6541C29.1052 31 31 29.1362 31 27.0148V12.4454C31 11.21 30.3838 10.0342 29.2814 9.26301L5.34588 31ZM5.34588 31C2.89475 31 1 29.1362 1 27.0148M5.34588 31L1 27.0148M1 27.0148V12.4454M1 27.0148V12.4454M1 12.4454C1 11.21 1.6162 10.0342 2.71856 9.26301L1 12.4454Z" stroke="#D5D5DC" stroke-width="2"/>
</svg>
